<?xml version="1.0" encoding="utf-8"?>
<!-- Generator: Adobe Illustrator 22.0.1, SVG Export Plug-In . SVG Version: 6.00 Build 0)  -->
<svg version="1.1" id="Capa_1" xmlns="http://www.w3.org/2000/svg" xmlns:xlink="http://www.w3.org/1999/xlink" x="0px" y="0px"
	 viewBox="0 0 1000 1000" style="enable-background:new 0 0 1000 1000;" xml:space="preserve">
<style type="text/css">
	.st0{fill:#FFFFFF;}
</style>
<g>
	<g>
		<path class="st0" d="M552.9,645.8c-88.9,0-225-136.5-225-304.7c0-154.3,88.3-254,225-254c136.7,0,225,99.7,225,254
			C777.9,509.9,654.8,645.8,552.9,645.8z M552.9,109.4c-125,0-202.7,88.8-202.7,231.7c0,153.2,124.5,282.4,202.7,282.4
			c91.8,0,202.7-126,202.7-282.4C755.5,198.2,677.9,109.4,552.9,109.4z"/>
		<path class="st0" d="M552.9,914c-106.4,0-201.8-18.7-263.2-34.3c-27-6.9-48-26.9-56.2-53.6c-8.1-26.6-1.9-54.8,16.6-75.5
			c39.1-43.7,79.6-79.9,120.5-107.6c32.1-21.7,76.1-15.8,102.3,13.6c12.8,14.3,26.5,28.4,40.7,41.9c22,20.8,56.4,20.8,78.4,0
			c14.3-13.5,27.9-27.6,40.7-41.9l0,0c26.3-29.4,70.2-35.3,102.3-13.6c40.9,27.7,81.5,63.9,120.5,107.6c18.5,20.7,24.7,49,16.6,75.5
			c-8.1,26.7-29.1,46.7-56.2,53.6C754.7,895.3,659.3,914,552.9,914z M413.7,652.2c-10.6,0-21.2,3-30.4,9.3
			c-39.4,26.6-78.6,61.6-116.4,104c-13.3,14.8-17.7,35.1-11.9,54.1c5.8,19.1,20.9,33.5,40.3,38.5c60.1,15.3,153.6,33.6,257.6,33.6
			s197.5-18.3,257.6-33.6c19.4-5,34.5-19.3,40.3-38.5c5.8-19,1.3-39.3-11.9-54.1c-37.8-42.4-77-77.3-116.4-104
			c-22.8-15.4-54.3-11.2-73.1,10l0,0c-13.2,14.7-27.3,29.3-42,43.2c-30.6,29-78.5,29-109.1,0c-14.7-13.9-28.8-28.5-42-43.3
			C445.1,658.8,429.4,652.2,413.7,652.2z"/>
	</g>
	<path class="st0" d="M284.7,664h-65c-6,0-10.9-4.9-10.9-10.9v-56.3h-56.3c-6,0-10.9-4.9-10.9-10.9v-65c0-6,4.9-10.9,10.9-10.9h56.3
		v-56.3c0-6,4.9-10.9,10.9-10.9h65c6,0,10.9,4.9,10.9,10.9V510h56.3c6,0,10.9,4.9,10.9,10.9v65c0,6-4.9,10.9-10.9,10.9h-56.3v56.3
		C295.6,659.1,290.7,664,284.7,664z M230.5,642.2h43.3v-56.3c0-6,4.9-10.9,10.9-10.9H341v-43.3h-56.3c-6,0-10.9-4.9-10.9-10.9v-56.3
		h-43.3v56.3c0,6-4.9,10.9-10.9,10.9h-56.3V575h56.3c6,0,10.9,4.9,10.9,10.9V642.2z"/>
</g>
</svg>
