<?xml version="1.0" encoding="utf-8"?>
<!-- Generator: Adobe Illustrator 22.0.1, SVG Export Plug-In . SVG Version: 6.00 Build 0)  -->
<svg version="1.1" id="Capa_1" xmlns="http://www.w3.org/2000/svg" xmlns:xlink="http://www.w3.org/1999/xlink" x="0px" y="0px"
	 viewBox="0 0 1000 1000" style="enable-background:new 0 0 1000 1000;" xml:space="preserve">
<style type="text/css">
	.st0{fill:#FFFFFF;}
</style>
<path class="st0" d="M909.1,281.7c0.1-0.1,0.1-0.2,0.2-0.3c0.1-0.2,0.3-0.5,0.4-0.7c0.1-0.1,0.1-0.2,0.2-0.3
	c0.1-0.2,0.2-0.5,0.3-0.7c0-0.1,0.1-0.3,0.1-0.4c0.1-0.2,0.1-0.4,0.2-0.7c0-0.1,0.1-0.3,0.1-0.4c0-0.2,0.1-0.4,0.1-0.7
	c0-0.2,0-0.3,0.1-0.5c0-0.2,0-0.4,0.1-0.7c0-0.2,0-0.3,0-0.5c0-0.3,0-0.5,0-0.8c0-0.1,0-0.2,0-0.3c-0.4-3.9-9-95.5-49.1-135.7
	c-40-39.7-130.7-48.5-135.7-49H726l0,0l0,0c-0.4,0-0.8,0-1.2,0l0,0c-0.4,0-0.8,0-1.1,0.1c0,0,0,0-0.1,0c-0.4,0-0.7,0.1-1.1,0.2h-0.1
	c-0.3,0.1-0.7,0.2-1,0.3c-0.1,0-0.1,0-0.2,0.1c-0.3,0.1-0.6,0.2-0.9,0.4c-0.1,0-0.1,0.1-0.2,0.1c-0.3,0.1-0.5,0.3-0.8,0.4
	c-0.1,0-0.2,0.1-0.2,0.1c-0.2,0.2-0.5,0.3-0.7,0.5c-0.1,0.1-0.2,0.1-0.2,0.2c-0.3,0.2-0.6,0.5-0.9,0.8L151.7,658.8l-0.1,0.1
	c-0.3,0.3-0.6,0.6-0.8,0.9c0,0,0,0.1-0.1,0.1c-0.2,0.3-0.5,0.6-0.7,1l-0.1,0.1c-0.1,0.1-0.1,0.2-0.2,0.3c-0.2,0.3-0.3,0.6-0.4,0.9
	c0,0.1-0.1,0.2-0.1,0.3c-0.2,0.5-0.3,0.9-0.4,1.4L90.6,897c-0.9,3.7,0.2,7.6,2.9,10.3c2.1,2.1,4.8,3.2,7.7,3.2
	c0.9,0,1.8-0.1,2.6-0.3L337,851.9h0.1c0.2-0.1,0.5-0.1,0.7-0.2c0.2-0.1,0.5-0.1,0.7-0.2c0.2-0.1,0.4-0.2,0.6-0.3s0.5-0.2,0.7-0.4
	c0,0,0.1,0,0.1-0.1c0.3-0.2,0.7-0.4,1-0.7l0.1-0.1c0.3-0.3,0.6-0.5,0.9-0.8l0.1-0.1l565.6-565.6c0.3-0.3,0.5-0.6,0.8-0.9
	c0.1-0.1,0.1-0.2,0.2-0.2C908.7,282.2,908.9,281.9,909.1,281.7z M806.6,353.7L647.1,194.2l77.9-77.9l159.5,159.5L806.6,353.7z
	 M768.7,391.6L609.2,232.1l22.5-22.5l159.5,159.5L768.7,391.6z M336.5,823.8l-54.1-90.1l398.8-398.8l72.1,72.1L336.5,823.8z
	 M129.9,829.6l36.6-146.3l94.4,56.6l56.6,94.4l-146.3,36.6C170.8,868.9,131.9,830,129.9,829.6z M593.8,247.4l72.1,72.1L267.1,718.3
	l-90.1-54L593.8,247.4z M884.2,244.7L756.1,116.6c28.6,5.6,69,16.9,90.2,38C867.3,175.6,878.6,216.1,884.2,244.7z M124.2,852.2
	l24.4,24.4l-32.6,8.1L124.2,852.2z"/>
</svg>
