<?xml version="1.0" encoding="utf-8"?>
<!-- Generator: Adobe Illustrator 22.0.1, SVG Export Plug-In . SVG Version: 6.00 Build 0)  -->
<svg version="1.1" id="Capa_1" xmlns="http://www.w3.org/2000/svg" xmlns:xlink="http://www.w3.org/1999/xlink" x="0px" y="0px"
	 viewBox="0 0 1000 1000" style="enable-background:new 0 0 1000 1000;" xml:space="preserve">
<style type="text/css">
	.st0{display:none;fill:#FFFFFF;}
	.st1{fill:#FFFFFF;}
</style>
<path class="st0" d="M909.1,281.7c0.1-0.1,0.1-0.2,0.2-0.3c0.1-0.2,0.3-0.5,0.4-0.7c0.1-0.1,0.1-0.2,0.2-0.3
	c0.1-0.2,0.2-0.5,0.3-0.7c0-0.1,0.1-0.3,0.1-0.4c0.1-0.2,0.1-0.4,0.2-0.7c0-0.1,0.1-0.3,0.1-0.4c0-0.2,0.1-0.4,0.1-0.7
	c0-0.2,0-0.3,0.1-0.5c0-0.2,0-0.4,0.1-0.7c0-0.2,0-0.3,0-0.5c0-0.3,0-0.5,0-0.8c0-0.1,0-0.2,0-0.3c-0.4-3.9-9-95.5-49.1-135.7
	C821.8,99.3,731.1,90.5,726.1,90c0,0-0.1,0-0.1,0c0,0,0,0,0,0c0,0,0,0,0,0c-0.4,0-0.8,0-1.2,0c0,0,0,0,0,0c-0.4,0-0.8,0-1.1,0.1
	c0,0,0,0-0.1,0c-0.4,0-0.7,0.1-1.1,0.2c0,0-0.1,0-0.1,0c-0.3,0.1-0.7,0.2-1,0.3c-0.1,0-0.1,0-0.2,0.1c-0.3,0.1-0.6,0.2-0.9,0.4
	c-0.1,0-0.1,0.1-0.2,0.1c-0.3,0.1-0.5,0.3-0.8,0.4c-0.1,0-0.2,0.1-0.2,0.1c-0.2,0.2-0.5,0.3-0.7,0.5c-0.1,0.1-0.2,0.1-0.2,0.2
	c-0.3,0.2-0.6,0.5-0.9,0.8L151.7,658.8c0,0-0.1,0.1-0.1,0.1c-0.3,0.3-0.6,0.6-0.8,0.9c0,0,0,0.1-0.1,0.1c-0.2,0.3-0.5,0.6-0.7,1
	c0,0-0.1,0.1-0.1,0.1c-0.1,0.1-0.1,0.2-0.2,0.3c-0.2,0.3-0.3,0.6-0.4,0.9c0,0.1-0.1,0.2-0.1,0.3c-0.2,0.5-0.3,0.9-0.4,1.4L90.6,897
	c-0.9,3.7,0.2,7.6,2.9,10.3c2.1,2.1,4.8,3.2,7.7,3.2c0.9,0,1.8-0.1,2.6-0.3L337,851.9c0,0,0.1,0,0.1,0c0.2-0.1,0.5-0.1,0.7-0.2
	c0.2-0.1,0.5-0.1,0.7-0.2c0.2-0.1,0.4-0.2,0.6-0.3c0.2-0.1,0.5-0.2,0.7-0.4c0,0,0.1,0,0.1-0.1c0.3-0.2,0.7-0.4,1-0.7
	c0,0,0.1-0.1,0.1-0.1c0.3-0.3,0.6-0.5,0.9-0.8c0,0,0.1-0.1,0.1-0.1l565.6-565.6c0.3-0.3,0.5-0.6,0.8-0.9c0.1-0.1,0.1-0.2,0.2-0.2
	C908.7,282.2,908.9,281.9,909.1,281.7z M806.6,353.7L647.1,194.2l77.9-77.9l159.5,159.5L806.6,353.7z M768.7,391.6L609.2,232.1
	l22.5-22.5l159.5,159.5L768.7,391.6z M336.5,823.8l-54.1-90.1l398.8-398.8l72.1,72.1L336.5,823.8z M129.9,829.6l36.6-146.3
	l94.4,56.6l56.6,94.4l-146.3,36.6C170.8,868.9,131.9,830,129.9,829.6z M593.8,247.4l72.1,72.1L267.1,718.3L177,664.3L593.8,247.4z
	 M884.2,244.7L756.1,116.6c28.6,5.6,69,16.9,90.2,38C867.3,175.6,878.6,216.1,884.2,244.7z M124.2,852.2l24.4,24.4l-32.6,8.1
	L124.2,852.2z"/>
<g>
	<path class="st1" d="M637.5,914.3h-275c-69.7,0-126.4-56.7-126.4-126.4V283.8c0-6,4.9-10.9,10.9-10.9s10.9,4.9,10.9,10.9v504.1
		c0,57.6,46.9,104.6,104.6,104.6h275c57.7,0,104.6-46.9,104.6-104.6V283.8c0-6,4.9-10.9,10.9-10.9c6,0,10.9,4.9,10.9,10.9v504.1
		C763.9,857.6,707.2,914.3,637.5,914.3z"/>
	<g>
		<path class="st1" d="M314.8,763.9c-6,0-10.9-4.9-10.9-10.9V360.5c0-6,4.9-10.9,10.9-10.9s10.9,4.9,10.9,10.9V753
			C325.8,759,320.9,763.9,314.8,763.9z"/>
		<path class="st1" d="M407.4,763.9c-6,0-10.9-4.9-10.9-10.9V360.5c0-6,4.9-10.9,10.9-10.9s10.9,4.9,10.9,10.9V753
			C418.3,759,413.5,763.9,407.4,763.9z"/>
		<path class="st1" d="M500,763.9c-6,0-10.9-4.9-10.9-10.9V360.5c0-6,4.9-10.9,10.9-10.9s10.9,4.9,10.9,10.9V753
			C510.9,759,506,763.9,500,763.9z"/>
		<path class="st1" d="M592.6,763.9c-6,0-10.9-4.9-10.9-10.9V360.5c0-6,4.9-10.9,10.9-10.9s10.9,4.9,10.9,10.9V753
			C603.5,759,598.6,763.9,592.6,763.9z"/>
		<path class="st1" d="M685.1,763.9c-6,0-10.9-4.9-10.9-10.9V360.5c0-6,4.9-10.9,10.9-10.9c6,0,10.9,4.9,10.9,10.9V753
			C696.1,759,691.2,763.9,685.1,763.9z"/>
	</g>
	<path class="st1" d="M794.3,260.2H205.7c-6,0-10.9-4.9-10.9-10.9v-56.8c0-6,4.9-10.9,10.9-10.9h160.7C373.2,118.7,438.8,90,500,90
		c61.2,0,126.8,28.7,133.6,91.5h160.7c6,0,10.9,4.9,10.9,10.9v56.8C805.2,255.3,800.3,260.2,794.3,260.2z M216.6,238.3h566.7v-34.9
		H623.2c-6,0-10.9-4.9-10.9-10.9c0-30.9-18.3-49.4-33.6-59.5c-20.3-13.4-49-21.1-78.7-21.1c-54.1,0-112.3,25.2-112.3,80.6
		c0,6-4.9,10.9-10.9,10.9H216.6V238.3z"/>
</g>
</svg>
