<?xml version="1.0" encoding="utf-8"?>
<!-- Generator: Adobe Illustrator 22.0.1, SVG Export Plug-In . SVG Version: 6.00 Build 0)  -->
<svg version="1.1" id="Capa_1" xmlns="http://www.w3.org/2000/svg" xmlns:xlink="http://www.w3.org/1999/xlink" x="0px" y="0px"
	 viewBox="0 0 1000 1000" style="enable-background:new 0 0 1000 1000;" xml:space="preserve">
<style type="text/css">
	.st0{fill:#FFFFFF;}
</style>
<g>
	<path class="st0" d="M869.2,904H208.8C142.7,904,89,850.3,89,784.2v-571C89,145.3,144.3,90,212.2,90h518.6c9,0,17.8,3.7,24.2,10.1
		l144.7,146.9c2.1,2.1,3.3,5,3.3,8v615.2C903,888.9,887.9,904,869.2,904z M212.2,112.8c-55.4,0-100.4,45-100.4,100.4v571
		c0,53.5,43.5,97,97,97h660.5c6,0,11-4.9,11-11V259.7L738.7,116.1c-2.1-2.1-5-3.3-7.9-3.3H212.2z"/>
	<path class="st0" d="M715,759.5H283.9c-8.8,0-16-7.2-16-16v-266c0-8.8,7.2-16,16-16H715c8.8,0,16,7.2,16,16v266
		C731,752.3,723.8,759.5,715,759.5z M290.7,736.7h417.5V484.3H290.7V736.7z"/>
	<path class="st0" d="M715,367.4H283.9c-8.8,0-16-7.2-16-16V112.9c0-6.3,5.1-11.4,11.4-11.4c6.3,0,11.4,5.1,11.4,11.4v231.7h417.5
		V112.9c0-6.3,5.1-11.4,11.4-11.4c6.3,0,11.4,5.1,11.4,11.4v238.5C731,360.2,723.8,367.4,715,367.4z"/>
	<path class="st0" d="M416.9,312.3h-82.6c-10.1,0-18.3-8.2-18.3-18.3V156.4c0-10.1,8.2-18.3,18.3-18.3h82.6
		c10.1,0,18.3,8.2,18.3,18.3V294C435.2,304.1,427,312.3,416.9,312.3z M338.8,289.5h73.5V161h-73.5V289.5z"/>
</g>
</svg>
